<svg width="681" height="639" fill="none" xmlns="http://www.w3.org/2000/svg">
<mask id="mask0" mask-type="alpha" maskUnits="userSpaceOnUse">
<path className="mask-blob" fill-rule="evenodd" clip-rule="evenodd" d="M365.999 0.501405C450.164 5.69064 519.063 60.6929 576.707 122.239C632.023 181.299 670.499 252.32 677.368 332.948C684.94 421.817 680.155 520.989 615.956 582.905C552.359 644.24 453.667 644.235 365.999 633.245C289.902 623.705 230.96 575.935 171.729 527.217C102.497 470.272 9.99764 422.128 0.901865 332.948C-8.59054 239.878 58.4283 157.535 127.6 94.5492C193.263 34.7585 277.361 -4.96358 365.999 0.501405Z" fill="#C4C4C4"/>
</mask>
<g mask="url(#mask0)">
<path d="M1424 -293H-176V907H1424V-293Z" fill="#ECECF4"/>
<path fill-rule="evenodd" clip-rule="evenodd" d="M124 107H224V307H124C68.7715 307 24 262.228 24 207C24 151.772 68.7715 107 124 107Z" fill="#111747"/>
<path d="M624 107H424V307H624V107Z" fill="#111747"/>
<path d="M624 307H424V507H624V307Z" fill="#FFC641"/>
<path d="M824 107H624V307H824V107Z" fill="#06818E"/>
<path d="M424 107H224V307H424V107Z" fill="#111747"/>
<path d="M624 507H424V707H624V507Z" fill="white"/>
<path d="M624 -93H424V107H624V-93Z" fill="#16A3B2"/>
<path fill-rule="evenodd" clip-rule="evenodd" d="M624 107H724C779.228 107 824 151.772 824 207C824 262.228 779.228 307 724 307H624V107Z" fill="#111747"/>
<path fill-rule="evenodd" clip-rule="evenodd" d="M624 507H724C779.228 507 824 551.772 824 607C824 662.228 779.228 707 724 707H624V507Z" fill="#16A3B2"/>
<path fill-rule="evenodd" clip-rule="evenodd" d="M724 -93C779.228 -93 824 -48.2285 824 7V107H624V7C624 -48.2285 668.772 -93 724 -93Z" fill="#FE5E33"/>
<path fill-rule="evenodd" clip-rule="evenodd" d="M324 -93C379.228 -93 424 -48.2285 424 7V107H324C268.772 107 224 62.2285 224 7C224 -48.2285 268.772 -93 324 -93Z" fill="#FF87A2"/>
<path fill-rule="evenodd" clip-rule="evenodd" d="M424 107H624C624 162.228 579.228 207 524 207C468.772 207 424 162.228 424 107Z" fill="#06818E"/>
<path fill-rule="evenodd" clip-rule="evenodd" d="M724 307C779.228 307 824 351.772 824 407C824 462.228 779.228 507 724 507H624V407C624 351.772 668.772 307 724 307Z" fill="#16A3B2"/>
<path fill-rule="evenodd" clip-rule="evenodd" d="M124 307H224V407C224 462.228 179.228 507 124 507C68.7715 507 24 462.228 24 407C24 351.772 68.7715 307 124 307Z" fill="#16A3B2"/>
<path fill-rule="evenodd" clip-rule="evenodd" d="M624 507H424C424 451.772 468.772 407 524 407C579.228 407 624 451.772 624 507Z" fill="#06818E"/>
<path fill-rule="evenodd" clip-rule="evenodd" d="M424 307H224C224 251.772 268.772 207 324 207C379.228 207 424 251.772 424 307Z" fill="#FE5E33"/>
<path d="M424 307H224V507H424V307Z" fill="#FFC641"/>
<path fill-rule="evenodd" clip-rule="evenodd" d="M224 507H424V607C424 662.228 379.228 707 324 707C268.772 707 224 662.228 224 607V507Z" fill="#FFC641"/>
<path d="M24 -93H-176V107H24V-93Z" fill="#16A3B2"/>
<path d="M24 307H-176V507H24V307Z" fill="#FE5E33"/>
<path d="M24 107H-176V307H24V107Z" fill="#FF87A2"/>
<path fill-rule="evenodd" clip-rule="evenodd" d="M24 107H224C224 162.228 179.228 207 124 207C68.7715 207 24 162.228 24 107Z" fill="#FF87A2"/>
<path fill-rule="evenodd" clip-rule="evenodd" d="M624 107H824C824 162.228 779.228 207 724 207C668.772 207 624 162.228 624 107Z" fill="#FE5E33"/>
<path d="M224 -93H24V107H224V-93Z" fill="#FF87A2"/>
<path fill-rule="evenodd" clip-rule="evenodd" d="M174 93.5769C144.11 76.2864 124 43.9692 124 6.95511C124 -30.059 144.11 -62.3762 174 -79.6667C203.89 -62.3762 224 -30.059 224 6.95511C224 43.9692 203.89 76.2864 174 93.5769Z" fill="white"/>
<path fill-rule="evenodd" clip-rule="evenodd" d="M624 -93C624 -37.7715 579.228 7 524 7C524 -48.2285 568.772 -93 624 -93Z" fill="#111747"/>
<path fill-rule="evenodd" clip-rule="evenodd" d="M24 -93C24 -37.7715 -20.7715 7 -76 7C-76 -48.2285 -31.2285 -93 24 -93Z" fill="#FFC641"/>
<path fill-rule="evenodd" clip-rule="evenodd" d="M24 507V307C79.2285 307 124 351.772 124 407C124 462.228 79.2285 507 24 507Z" fill="#FE5E33"/>
<path fill-rule="evenodd" clip-rule="evenodd" d="M424 307C424 251.772 468.772 207 524 207C524 262.228 479.228 307 424 307Z" fill="white"/>
<path fill-rule="evenodd" clip-rule="evenodd" d="M-26 693.577C-55.8901 676.286 -76 643.969 -76 606.955C-76 569.941 -55.8901 537.624 -26 520.333C3.89008 537.624 24 569.941 24 606.955C24 643.969 3.89008 676.286 -26 693.577ZM-126 693.577C-155.89 676.286 -176 643.969 -176 606.955C-176 569.941 -155.89 537.624 -126 520.333C-96.1099 537.624 -76 569.941 -76 606.955C-76 643.969 -96.1099 676.286 -126 693.577Z" fill="#16A3B2"/>
<path d="M424 507H224V707H424V507Z" fill="#16A3B2"/>
<path d="M324 407H124V607H324V407Z" fill="white"/>
<path d="M424 307H224V507H424V307Z" fill="#FE5E33"/>
<path fill-rule="evenodd" clip-rule="evenodd" d="M324 157C351.614 157 374 179.386 374 207C374 234.614 351.614 257 324 257C296.386 257 274 234.614 274 207C274 179.386 296.386 157 324 157Z" fill="#FFC641"/>
<path fill-rule="evenodd" clip-rule="evenodd" d="M524 557C551.614 557 574 579.386 574 607C574 634.614 551.614 657 524 657C496.386 657 474 634.614 474 607C474 579.386 496.386 557 524 557Z" fill="#FE5E33"/>
<path fill-rule="evenodd" clip-rule="evenodd" d="M724 357C751.614 357 774 379.386 774 407C774 434.614 751.614 457 724 457C696.386 457 674 434.614 674 407C674 379.386 696.386 357 724 357Z" fill="#FE5E33"/>
<path fill-rule="evenodd" clip-rule="evenodd" d="M124 557C151.614 557 174 579.386 174 607C174 634.614 151.614 657 124 657C96.3858 657 74 634.614 74 607C74 579.386 96.3858 557 124 557Z" fill="#16A3B2"/>
<path fill-rule="evenodd" clip-rule="evenodd" d="M724 -43C751.614 -43 774 -20.6142 774 7C774 34.6142 751.614 57 724 57C696.386 57 674 34.6142 674 7C674 -20.6142 696.386 -43 724 -43Z" fill="#FFC641"/>
<path fill-rule="evenodd" clip-rule="evenodd" d="M124 357C151.614 357 174 379.386 174 407C174 434.614 151.614 457 124 457C96.3858 457 74 434.614 74 407C74 379.386 96.3858 357 124 357Z" fill="#111747"/>
<path fill-rule="evenodd" clip-rule="evenodd" d="M524 57C551.614 57 574 79.3858 574 107C574 134.614 551.614 157 524 157C496.386 157 474 134.614 474 107C474 79.3858 496.386 57 524 57Z" fill="#FE5E33"/>
<path fill-rule="evenodd" clip-rule="evenodd" d="M224 707H24C24 651.772 68.7715 607 124 607C179.228 607 224 651.772 224 707Z" fill="#FE5E33"/>
<path fill-rule="evenodd" clip-rule="evenodd" d="M724 407C724 462.228 679.228 507 624 507C624 451.772 668.772 407 724 407Z" fill="#06818E"/>
<path fill-rule="evenodd" clip-rule="evenodd" d="M424 407C424 462.228 379.228 507 324 507C324 451.772 368.772 407 424 407ZM224 607C224 551.772 268.772 507 324 507C324 562.228 279.228 607 224 607ZM324 507C268.772 507 224 462.228 224 407C279.228 407 324 451.772 324 507ZM324 507C379.228 507 424 551.772 424 607C368.772 607 324 562.228 324 507Z" fill="#16A3B2"/>
</g>
</svg>
