<svg xmlns="http://www.w3.org/2000/svg" width="43" height="60" fill="none" viewBox="0 0 43 60"><g filter="url(#filter0_d)"><path fill="#5ECB89" d="M12.7517 56.0001C17.5807 56.0001 21.4999 52.1174 21.4999 47.3334V38.6667H12.7517C7.92263 38.6667 4.00342 42.5494 4.00342 47.3334C4.00342 52.1174 7.92263 56.0001 12.7517 56.0001Z"/><path fill="#9763F6" d="M4.00342 29.9999C4.00342 25.2159 7.92263 21.3333 12.7517 21.3333H21.4999V38.6666H12.7517C7.92263 38.6666 4.00342 34.7839 4.00342 29.9999Z"/><path fill="#E15A33" d="M4.00391 12.6667C4.00391 7.88267 7.92312 4 12.7521 4H21.5004V21.3333H12.7521C7.92312 21.3333 4.00391 17.4507 4.00391 12.6667Z"/><path fill="#EE7A69" d="M21.5 4H30.2483C35.0773 4 38.9965 7.88267 38.9965 12.6667C38.9965 17.4507 35.0773 21.3333 30.2483 21.3333H21.5V4Z"/><path fill="#55BBF8" d="M38.9965 29.9999C38.9965 34.7839 35.0773 38.6666 30.2483 38.6666C25.4192 38.6666 21.5 34.7839 21.5 29.9999C21.5 25.2159 25.4192 21.3333 30.2483 21.3333C35.0773 21.3333 38.9965 25.2159 38.9965 29.9999Z"/></g><defs><filter id="filter0_d" width="43" height="60" x="0" y="0" color-interpolation-filters="sRGB" filterUnits="userSpaceOnUse"><feFlood flood-opacity="0" result="BackgroundImageFix"/><feColorMatrix in="SourceAlpha" type="matrix" values="0 0 0 0 0 0 0 0 0 0 0 0 0 0 0 0 0 0 127 0"/><feOffset/><feGaussianBlur stdDeviation="2"/><feColorMatrix type="matrix" values="0 0 0 0 0 0 0 0 0 0 0 0 0 0 0 0 0 0 0.1 0"/><feBlend in2="BackgroundImageFix" mode="normal" result="effect1_dropShadow"/><feBlend in="SourceGraphic" in2="effect1_dropShadow" mode="normal" result="shape"/></filter></defs></svg>